<?xml version="1.0" encoding="UTF-8" standalone="no"?>
<!-- Created with Inkscape (http://www.inkscape.org/) -->
<svg xmlns:dc="http://purl.org/dc/elements/1.1/" xmlns:cc="http://web.resource.org/cc/" xmlns:rdf="http://www.w3.org/1999/02/22-rdf-syntax-ns#" xmlns:svg="http://www.w3.org/2000/svg" xmlns="http://www.w3.org/2000/svg" xmlns:sodipodi="http://sodipodi.sourceforge.net/DTD/sodipodi-0.dtd" xmlns:inkscape="http://www.inkscape.org/namespaces/inkscape" version="1.0" width="957" height="382" id="svg2" sodipodi:version="0.32" inkscape:version="0.45.1" sodipodi:docname="Signature_of_Robert_Mugabe_2.svg" inkscape:output_extension="org.inkscape.output.svg.inkscape" sodipodi:docbase="C:\Documents and Settings\Dan Sample\Desktop">
  <metadata id="metadata7">
    <rdf:RDF>
      <cc:Work rdf:about="">
        <dc:format>image/svg+xml</dc:format>
        <dc:type rdf:resource="http://purl.org/dc/dcmitype/StillImage"/>
      </cc:Work>
    </rdf:RDF>
  </metadata>
  <sodipodi:namedview inkscape:window-height="579" inkscape:window-width="744" inkscape:pageshadow="2" inkscape:pageopacity="0.0" guidetolerance="10.0" gridtolerance="10.0" objecttolerance="10.0" borderopacity="1.0" bordercolor="#666666" pagecolor="#ffffff" id="base" inkscape:zoom="0.68652038" inkscape:cx="478.5" inkscape:cy="228.11187" inkscape:window-x="110" inkscape:window-y="151" inkscape:current-layer="svg2"/>
  <defs id="defs5"/>
  <path d="M 0,191.00001 L 0,-2.8421709e-014 L 478.5,-2.8421709e-014 L 957,-2.8421709e-014 L 957,191.00001 L 957,382.00001 L 478.5,382.00001 L 0,382.00001 L 0,191.00001 z " style="fill:none;fill-opacity:1" id="path2165"/>
  <path d="M 77.956216,352.96358 C 41.113669,350.85409 22.830222,337.59038 29.988467,318.16542 C 33.397073,308.91567 43.620428,297.01614 59.317862,284.02733 C 70.736266,274.5792 97.841084,258.29414 120.63291,247.18817 L 137.44796,238.99455 L 132.88291,234.74338 C 130.22108,232.26457 128.31787,229.60383 128.31787,228.36132 C 128.31787,218.51051 135.82711,205.25675 148.33879,193.02454 C 155.33288,186.18668 167.28333,177.23368 171.6563,175.55562 C 174.05451,174.63534 173.78167,170.47516 169.88393,148.53078 C 164.86258,120.26051 160.4059,106.90818 154.26723,101.74283 C 151.54393,99.451327 150.27711,99.082317 145.99883,99.334357 C 141.14077,99.620547 140.84009,99.813427 138.18025,104.34988 C 134.95326,109.85363 123.33447,132.66926 117.15746,145.63199 C 112.69332,155.0002 101.766,175.21849 96.792063,183.31311 C 92.691274,189.98677 88.611182,191.4171 86.251614,187.0082 C 85.389512,185.39735 87.185638,181.19891 96.591942,162.83768 C 108.20367,140.17145 116.01295,125.68606 126.5285,107.30851 C 129.77738,101.6306 132.29657,96.577097 132.12671,96.078507 C 131.95685,95.579927 129.11787,96.852117 125.81787,98.905597 C 122.51787,100.95908 116.44287,104.29352 112.31787,106.31546 C 98.685593,112.99754 83.856363,119.83149 81.317862,120.6016 C 79.942862,121.01874 77.467862,122.1389 75.817862,123.09084 C 74.167862,124.04279 71.242862,125.39253 69.317862,126.09028 C 67.392862,126.78803 61.542862,129.28566 56.317862,131.64056 C 41.723183,138.21838 34.401608,140.925 27.457535,142.30955 C 21.278068,143.54166 21.043888,143.51187 19.222049,141.26199 C 16.561323,137.97614 18.219602,135.13199 22.796149,135.13199 C 29.467453,135.13199 44.047757,129.44897 89.317862,109.20357 C 123.5214,93.907297 142.40725,80.777357 155.81787,62.971027 C 165.97284,49.487477 169.1789,45.867497 176.71553,39.375377 C 183.91008,33.177937 194.36985,27.696327 197.25418,28.611777 C 198.3409,28.956687 200.42839,30.663057 201.89305,32.403697 C 204.26824,35.226457 204.50135,36.171897 204.04986,41.151047 C 203.53928,46.781827 199.04832,57.110567 193.40549,65.631987 C 191.94867,67.831987 190.11332,70.904277 189.32694,72.459297 C 187.01068,77.039577 174.4672,88.174277 168.59531,90.862517 C 165.6133,92.227717 162.91578,94.016237 162.60083,94.836997 C 162.28588,95.657747 163.66182,99.547387 165.65848,103.48063 C 167.65515,107.41388 170.39346,115.13199 171.74363,120.63199 C 174.76425,132.93672 180.35092,162.65881 180.33186,166.32297 C 180.31212,170.11887 181.64624,170.51528 186.35552,168.11278 C 190.31487,166.09287 209.0417,159.66854 218.31787,157.14795 C 220.79287,156.47542 224.61787,155.34585 226.81787,154.63778 C 235.66651,151.78987 272.09804,143.44901 283.80402,141.59102 C 288.7464,140.80656 293.39206,139.93376 294.1277,139.65147 C 294.86335,139.36918 302.29458,138.00348 310.64155,136.61659 C 318.98853,135.22971 326.60219,133.84899 327.56079,133.54834 C 329.42126,132.96484 337.56415,122.50018 343.83648,112.63199 C 347.55141,106.78733 356.27799,89.030257 357.78666,84.245817 C 358.49079,82.012797 358.35549,81.909037 355.67848,82.629157 C 354.10514,83.052387 351.01787,83.559667 348.81787,83.756437 C 346.61787,83.953217 343.43644,84.382387 341.74803,84.710157 C 336.71645,85.686937 330.61088,83.436197 326.3322,79.027317 C 323.6118,76.224127 321.30926,74.850027 318.63435,74.433407 C 313.55452,73.642217 309.70317,70.807557 307.29523,66.087617 C 304.91095,61.414047 304.79456,59.270037 306.88164,58.469147 C 308.92526,57.684937 313.31787,59.709917 313.31787,61.436237 C 313.31787,63.326957 317.33706,66.865407 320.31787,67.598967 C 322.45113,68.123947 323.60015,67.324037 328.15063,62.146057 C 333.97909,55.513857 342.22096,50.156107 346.61753,50.141377 C 350.64111,50.127887 355.04558,52.704757 356.80094,56.099257 C 358.85546,60.072257 358.77015,60.547277 355.29032,64.510587 C 351.91268,68.357507 346.55468,71.452587 340.40715,73.107947 C 333.63849,74.930557 335.34909,76.503287 343.36885,75.830937 C 354.16567,74.925767 363.95169,71.484067 367.15939,67.463897 C 370.34913,63.466227 372.52881,63.292767 376.97348,66.682877 C 381.02229,69.771057 381.16318,71.441407 377.62343,74.388607 C 372.99795,78.239777 369.57073,82.238667 367.66775,86.004937 C 366.65979,87.999817 365.30746,90.306987 364.66257,91.131987 C 364.01768,91.956987 360.48962,98.002757 356.82244,104.56703 C 353.15526,111.13131 348.16652,119.28845 345.73635,122.69402 C 341.00516,129.32419 340.2704,131.55301 343.06787,130.78854 C 344.03037,130.52552 349.31787,129.79237 354.81787,129.15931 C 360.31787,128.52625 369.09287,127.3652 374.31787,126.57919 C 379.54287,125.79319 386.74287,124.87204 390.31787,124.5322 C 393.89287,124.19236 399.06787,123.3227 401.81787,122.59961 C 404.56787,121.87653 409.51787,120.98448 412.81787,120.61727 C 420.239,119.79149 438.19029,116.12486 457.31787,111.52794 C 471.11606,108.21183 474.39301,106.82888 482.31787,100.97731 C 483.69287,99.962037 487.29287,97.860587 490.31787,96.307407 C 528.35756,76.776117 525.60032,78.831917 537.4952,61.131987 C 547.6255,46.057817 552.59324,42.361877 562.93103,42.208067 C 567.80791,42.135507 568.25845,42.361057 572.68103,47.089147 C 578.00784,52.783937 578.66714,56.421257 575.06787,60.257237 C 573.83037,61.576127 571.78177,63.829117 570.51542,65.263887 L 568.21297,67.872547 L 571.81444,69.997467 C 575.64415,72.257047 578.31787,77.135667 578.31787,81.863987 C 578.31787,87.270157 572.2468,100.6369 564.86988,111.47255 C 563.43182,113.58486 560.90707,117.85986 559.25931,120.97255 C 556.45438,126.2712 548.07131,140.54455 543.45477,147.88199 C 540.69967,152.26089 541.88284,151.97219 547.83505,146.81317 C 559.1883,136.97282 577.68339,125.13199 581.7005,125.13199 C 582.92005,125.13199 584.45787,125.67199 585.11787,126.33199 C 587.74737,128.96149 586.20539,133.78049 578.78228,146.13199 C 573.63955,154.6891 570.91962,162.81942 570.8656,169.79621 C 570.83935,173.18654 571.16559,176.30926 571.59058,176.73559 C 573.55131,178.70252 597.13942,167.30573 603.81787,161.16472 C 613.28332,152.46098 614.13891,151.98808 617.38429,153.66634 C 618.99776,154.5007 620.31787,155.98597 620.31787,156.96694 C 620.31787,157.94792 617.8465,160.88416 614.82594,163.49193 C 608.34938,169.08338 606.79952,171.4569 608.63193,172.97767 C 610.67064,174.66965 627.85296,165.96836 632.57639,160.85197 C 636.32216,156.79457 636.49831,156.72289 639.11479,158.19148 C 642.99616,160.37003 642.93985,162.58742 638.88281,167.32715 C 636.58727,170.00898 635.64529,171.85941 636.2618,172.47592 C 637.40749,173.62161 670.24854,171.39685 671.88338,170.06279 C 672.46942,169.58458 677.17897,168.71413 682.34905,168.12846 C 694.65245,166.73471 705.41154,165.21382 707.44722,164.58061 C 708.34337,164.30187 711.17822,164.78732 713.74689,165.65941 C 717.91465,167.0744 718.97681,167.08706 723.61754,165.77708 C 726.47772,164.96971 730.84287,164.00556 733.31787,163.63454 C 735.79287,163.26351 740.35596,162.05637 743.45806,160.95201 C 747.83163,159.39501 749.55729,159.18976 751.14232,160.03804 C 752.26656,160.63971 755.4556,161.13199 758.22908,161.13199 C 762.54304,161.13199 763.51547,161.50394 764.95821,163.70583 C 766.56125,166.15238 766.5383,166.49857 764.49426,170.70583 C 763.07766,173.62162 761.69874,175.13199 760.45331,175.13199 C 758.35066,175.13199 755.6562,177.80365 756.70306,178.85051 C 757.72794,179.8754 769.20431,177.23026 774.29299,174.79629 C 777.61651,173.20661 779.31235,171.5774 780.68031,168.65991 C 783.43127,162.79285 790.51406,153.97807 802.19672,141.88199 C 810.23793,133.55622 813.16997,131.13544 815.19858,131.1473 C 820.06913,131.17578 822.31787,134.47935 822.31787,141.60609 C 822.31787,146.79666 819.86903,152.29573 815.17865,157.63777 C 811.73112,161.56429 811.73792,161.59713 816.48875,163.96954 C 819.57807,165.51224 819.81334,165.97413 819.75503,170.38199 C 819.68122,175.96119 820.96708,176.42108 823.91442,171.86961 C 827.23419,166.74303 840.85639,162.88483 849.74776,164.55286 C 854.23744,165.39513 860.31787,170.56462 860.31787,173.53942 C 860.31787,179.2703 847.63576,186.13199 837.04365,186.13199 L 832.06787,186.13199 L 832.6847,189.21615 C 833.62662,193.92572 836.84107,197.71865 842.07485,200.29616 C 849.87673,204.13841 860.29125,203.49313 877.88887,198.07714 C 882.13253,196.77108 883.31787,196.88929 883.31787,198.61857 C 883.31787,200.34538 879.78227,201.96116 865.35465,206.82783 C 856.40722,209.84594 854.09063,210.26311 849.36355,209.70754 C 837.47576,208.31036 828.57337,201.82253 824.27242,191.42176 C 822.7563,187.75543 821.09345,185.60712 818.66071,184.17176 C 814.27517,181.58423 813.99108,181.60358 810.62986,184.71865 C 807.3218,187.78446 802.49096,189.94712 796.35743,191.10811 C 792.60082,191.81918 791.1658,191.58188 787.26309,189.60423 C 784.71444,188.31273 781.89273,186.13208 780.99262,184.75835 C 779.20126,182.02439 777.97512,182.11279 769.81787,185.56397 C 767.43799,186.57085 762.87928,187.30486 758.56261,187.3762 C 751.88369,187.48658 751.07313,187.2717 748.35876,184.67117 C 745.57921,182.00819 745.16386,181.90839 741.11402,182.93052 C 733.84379,184.76544 729.13107,185.10152 726.92728,183.94223 C 723.96897,182.38602 723.3507,181.17149 723.33318,176.88199 C 723.32049,173.77335 722.96732,173.13199 721.26821,173.13199 C 720.1409,173.13199 717.8909,173.81855 716.26821,174.65767 C 713.45787,176.11096 713.31787,176.49334 713.31787,182.71612 C 713.31787,197.58493 709.532,211.74519 700.76095,229.68263 C 695.97748,239.46517 683.32799,255.56757 674.35891,263.29158 C 671.58688,265.6788 669.31863,267.92166 669.31836,268.27569 C 669.31809,268.62973 671.23037,268.4809 673.56787,267.94496 C 675.90537,267.40902 679.84287,266.57989 682.31787,266.10245 C 691.87513,264.25879 706.21834,261.24 715.31787,259.157 C 720.54287,257.96092 726.84287,256.58028 729.31787,256.0889 C 731.79287,255.59751 736.29287,254.5292 739.31787,253.71486 C 751.42291,250.45615 761.01881,247.92631 764.80426,246.9957 C 766.99677,246.45669 774.64677,244.19434 781.80426,241.96824 C 788.96174,239.74215 799.09287,236.64501 804.31787,235.08571 C 821.46717,229.96784 835.59302,224.52096 850.31787,217.34826 C 865.0554,210.16937 872.79226,207.27304 874.00142,208.4822 C 875.25515,209.73594 868.91827,215.1717 864.8594,216.3242 C 862.63656,216.95537 859.91787,218.237 858.81787,219.17228 C 855.33926,222.12996 831.50026,233.13199 828.57021,233.13199 C 827.02618,233.13199 824.87525,233.73329 823.79038,234.46821 C 821.55075,235.98538 814.87703,238.18567 779.31787,249.13055 C 776.9083,249.8722 773.31259,250.82713 764.81787,252.98136 C 762.61787,253.53928 757.21787,254.93082 752.81787,256.07368 C 740.83733,259.18552 727.45641,262.3847 719.31787,264.08304 C 716.84287,264.59951 709.86787,266.19742 703.81787,267.63393 C 697.76787,269.07045 690.34287,270.62512 687.31787,271.08876 C 677.46054,272.59959 659.93244,276.13875 654.81787,277.65094 C 652.06787,278.46402 646.85443,279.35463 643.23244,279.63008 C 639.61045,279.90554 634.43545,280.59184 631.73244,281.15521 C 629.02943,281.71858 623.44934,282.64459 619.33226,283.21302 C 615.21517,283.78145 606.73295,285.12076 600.48288,286.18926 C 594.23282,287.25776 587.5502,288.13199 585.63263,288.13199 C 583.71506,288.13199 579.37228,288.78603 575.982,289.58542 C 572.59173,290.38481 565.54287,291.54251 560.31787,292.15809 C 549.71871,293.40682 527.48868,296.70836 519.81787,298.17303 C 517.06787,298.69811 513.01787,299.32915 510.81787,299.57532 C 508.61787,299.8215 504.11787,300.44519 500.81787,300.9613 C 497.51787,301.47741 486.94287,302.86651 477.31787,304.0482 C 467.69287,305.22989 457.11787,306.81591 453.81787,307.57268 C 450.51787,308.32945 443.76787,309.46317 438.81787,310.09206 C 433.86787,310.72095 425.99287,311.88537 421.31787,312.67967 C 416.64287,313.47396 410.90584,314.40812 408.56892,314.75556 C 405.40974,315.22525 403.47857,316.31634 401.03946,319.00963 C 399.23518,321.00193 396.64721,323.36204 395.28841,324.25433 C 393.92961,325.14662 387.76885,330.68864 381.59782,336.56992 C 371.45684,346.23477 370.06233,347.23282 367.09782,346.94758 C 361.56765,346.41548 362.41314,343.58473 370.71551,334.83544 C 378.19172,326.95677 381.37183,321.76581 379.71224,320.1499 C 378.76792,319.23046 359.7306,321.36053 352.81787,323.1591 C 350.61787,323.7315 343.19287,324.84368 336.31787,325.6306 C 329.44287,326.41753 321.56787,327.55617 318.81787,328.16092 C 313.53822,329.32197 305.75297,330.6509 295.81787,332.08699 C 292.51787,332.56399 283.29287,334.07826 275.31787,335.45203 C 260.92139,337.93197 254.95913,338.7871 246.31787,339.61134 C 242.08354,340.01523 238.76477,340.45147 220.31787,343.02889 C 209.79392,344.49932 171.8584,348.57529 158.31787,349.69047 C 131.84358,351.87086 113.7757,353.08519 102.81786,353.42058 C 96.767862,353.60575 85.580121,353.4001 77.956216,352.96358 z M 124.81787,346.6504 C 142.69207,345.25148 168.0431,342.93683 180.31787,341.58302 C 187.74287,340.7641 199.66787,339.45628 206.81787,338.67676 C 228.7803,336.28232 245.25511,334.18529 258.31787,332.12148 C 265.19287,331.03528 273.29287,329.86808 276.31787,329.52771 C 279.34287,329.18733 289.69287,327.5554 299.31787,325.90119 C 318.74855,322.56173 322.6822,321.95131 339.31787,319.69403 C 345.64287,318.8358 354.41787,317.45243 358.81787,316.61989 C 363.21787,315.78734 369.92817,314.68561 373.72965,314.17159 C 383.73758,312.81836 383.76926,312.76013 383.68036,295.87753 C 383.54984,271.0904 379.24064,259.08353 365.54989,245.35995 C 355.19853,234.98377 346.83426,229.84552 334.31787,226.17384 C 330.19287,224.96378 325.77195,223.55375 324.4936,223.04045 C 318.92136,220.80303 285.04234,218.99449 262.31787,219.72137 C 223.5808,220.96045 219.66961,221.39963 208.57194,225.75639 C 203.84281,227.61297 199.44513,229.13199 198.79933,229.13199 C 198.15353,229.13199 196.17001,229.85791 194.3915,230.74515 C 190.57627,232.64843 190.69034,234.02 195.4753,243.77681 C 199.36218,251.70237 203.31826,255.59969 206.63215,254.76796 C 210.93689,253.68754 218.65746,245.6198 224.31787,236.28698 C 227.34287,231.29939 230.15537,227.19914 230.56787,227.17531 C 232.51367,227.06292 230.93413,234.041 227.33859,241.44158 C 221.80931,252.82232 214.68117,260.14926 207.17112,262.1715 C 203.47403,263.16703 202.7776,263.02959 199.29692,260.61747 C 194.58721,257.35364 191.4517,252.89718 186.85815,242.9384 C 184.90635,238.70693 182.92029,235.00431 182.44467,234.71036 C 181.96906,234.41641 177.80846,235.25055 173.19889,236.56399 C 168.58933,237.87743 161.15757,239.23053 156.68386,239.57088 C 148.99243,240.15602 144.39782,241.53378 132.31787,246.87737 C 119.18955,252.6847 96.80155,264.54035 95.749789,266.24213 C 95.432097,266.75617 92.570604,268.49001 89.390917,270.09511 C 75.338723,277.18864 48.317862,298.03537 48.317862,301.78319 C 48.317862,302.4326 46.534037,304.37675 44.353807,306.10352 C 39.382536,310.04084 34.317862,319.68378 34.317862,325.21156 C 34.317862,332.81448 37.740367,336.55408 49.178177,341.44871 C 62.262918,347.04811 92.855318,349.15193 124.81787,346.6504 z M 399.63361,309.98373 C 400.83495,309.35219 406.02746,304.59928 411.17251,299.42171 C 416.31756,294.24413 420.74615,290.22694 421.01382,290.4946 C 421.93322,291.41401 420.27687,294.82573 416.36684,300.06635 C 410.27731,308.22817 411.6308,309.24541 425.21809,306.71875 C 429.39797,305.94147 436.64287,304.79913 441.31787,304.18021 C 445.99287,303.5613 453.64287,302.39981 458.31787,301.59913 C 462.99287,300.79845 475.14287,299.01147 485.31787,297.62807 C 495.49287,296.24467 510.11787,294.19603 517.81787,293.07553 C 525.51787,291.95503 536.54287,290.36584 542.31787,289.54399 C 548.09287,288.72214 555.96787,287.58644 559.81787,287.02022 C 563.66787,286.454 571.31787,285.33399 576.81787,284.53132 C 600.83642,281.02604 617.88634,277.89685 618.99215,276.79104 C 619.27586,276.50733 618.52977,275.45548 617.33417,274.4536 C 610.24297,268.51134 610.03204,256.22364 616.76803,241.47296 C 619.84549,234.73382 631.6973,218.94942 638.47126,212.56829 C 646.05566,205.42372 667.72439,189.16453 669.75289,189.09603 C 670.33863,189.07625 672.05542,188.04681 673.56798,186.80838 L 676.31808,184.55669 L 673.55863,181.25132 C 670.89886,178.06534 670.54311,177.94835 663.70961,178.01233 C 659.81034,178.04883 653.9825,178.76569 650.75885,179.60535 C 642.13367,181.85192 632.22831,181.63599 629.045,179.13199 C 625.88765,176.64842 624.40198,176.63631 618.50325,179.04608 C 608.84604,182.99127 603.01847,182.15983 600.42452,176.46672 C 599.83945,175.18262 598.98713,174.13199 598.53048,174.13199 C 598.07383,174.13199 595.23576,175.61601 592.22364,177.42981 C 584.69517,181.96322 575.25329,185.34263 571.19844,184.95509 C 568.29885,184.67796 567.42993,183.92059 565.09123,179.63199 C 560.51254,171.23577 561.63746,162.34834 569.17044,147.40419 C 571.45153,142.8789 573.31787,138.92984 573.31787,138.62851 C 573.31787,137.93058 567.73038,140.80899 563.81787,143.52247 C 557.53367,147.8808 546.37926,158.00851 534.81787,169.85319 C 528.21787,176.61491 522.4033,182.1438 521.89661,182.13961 C 520.09289,182.12469 517.31787,178.78671 517.31787,176.63199 C 517.31787,175.42748 518.21337,173.63154 519.30788,172.64103 C 520.40239,171.65052 523.82285,166.29327 526.9089,160.73604 C 529.99496,155.17881 534.44089,147.70699 536.78876,144.13199 C 539.13662,140.55699 543.88967,132.68199 547.3511,126.63199 C 550.81252,120.58199 555.41292,112.76427 557.57422,109.25927 C 563.82006,99.130297 570.31787,85.055057 570.31787,81.654567 C 570.31787,77.166327 568.72481,76.131987 561.81215,76.131987 C 556.94076,76.131987 555.05006,76.616247 552.45964,78.527397 C 550.67391,79.844867 545.07398,83.016447 540.01536,85.575347 C 518.70134,96.357037 517.97009,96.990017 502.31787,118.20708 C 500.39287,120.81648 496.87744,125.35456 494.50581,128.29171 C 492.13418,131.22887 486.05918,139.26757 481.00581,146.1555 C 461.61397,172.58731 447.0868,188.12437 435.49899,194.82581 C 431.51053,197.13241 427.25063,199.32314 426.03255,199.69409 C 424.81448,200.06504 423.14287,200.93157 422.31787,201.6197 C 420.80742,202.87957 418.58514,203.52317 410.31787,205.09509 C 404.65342,206.17211 401.31787,204.40657 401.31787,200.3313 C 401.31787,192.09817 427.43019,154.43884 452.74075,126.16895 C 456.90817,121.51428 460.31787,117.35178 460.31787,116.91895 C 460.31787,115.68289 455.85034,115.99952 454.51999,117.32987 C 453.86116,117.9887 450.50866,118.85695 447.06999,119.25932 C 443.63132,119.66168 434.51787,121.32565 426.81787,122.95703 C 419.11787,124.58841 405.39287,126.87534 396.31787,128.0391 C 387.24287,129.20287 377.56787,130.59914 374.81787,131.14192 C 372.06787,131.68471 364.19287,133.01771 357.31787,134.10415 C 333.58393,137.85477 336.55625,136.38598 321.31787,151.89376 C 305.72414,167.76317 298.9917,174.13199 297.80999,174.13199 C 297.34966,174.13199 294.34342,176.41916 291.12945,179.21458 C 287.91548,182.01001 282.70828,185.84931 279.5579,187.74637 C 276.40752,189.64344 272.92722,191.97857 271.8239,192.93557 C 270.72058,193.89257 267.79287,195.71993 265.31787,196.99638 C 262.84287,198.27283 259.91787,200.12474 258.81787,201.11174 C 257.71787,202.09874 255.01787,203.87513 252.81787,205.05928 C 247.89991,207.70636 241.81787,212.04592 241.81787,212.90782 C 241.81787,213.25882 251.26787,213.4421 262.81787,213.31511 C 306.07292,212.8395 332.58169,216.75455 350.81787,226.3117 C 358.24531,230.20426 373.19839,242.292 377.28982,247.71106 C 382.04998,254.01586 387.65084,264.85381 389.25606,270.86636 C 390.72496,276.36832 392.39863,299.85949 391.65028,304.471 C 391.33133,306.43649 391.33693,308.73928 391.66273,309.5883 C 392.36018,311.40583 396.53451,311.61292 399.63361,309.98373 z M 373.13553,169.62417 C 371.11024,167.70441 369.16056,165.21172 368.80291,164.08486 C 367.982,161.49841 369.88904,159.13199 372.79429,159.13199 C 375.63247,159.13199 380.31787,163.42105 380.31787,166.01914 C 380.31787,168.60944 378.58204,173.13439 377.59262,173.12332 C 377.16651,173.11855 375.16082,171.54393 373.13553,169.62417 z M 647.53466,271.14675 C 668.46025,264.68349 692.20463,237.86487 700.22718,211.63199 C 705.1512,195.53099 706.21483,182.79715 702.74686,181.46637 C 702.03922,181.19482 698.74444,181.96287 695.42513,183.17315 C 692.10583,184.38343 688.71098,185.11308 687.88103,184.7946 C 687.05108,184.47612 685.12234,185.21742 683.59495,186.44194 C 682.06756,187.66646 676.87617,190.65807 672.05853,193.08995 C 667.24089,195.52184 662.61955,198.54881 661.78889,199.81656 C 660.95823,201.08431 658.79847,202.74 656.98942,203.49587 C 651.25985,205.88983 644.98429,211.32401 635.76653,221.87334 C 629.21683,229.36919 626.51359,233.28254 625.68285,236.47103 C 625.05859,238.86702 623.34519,242.64469 621.87529,244.86586 C 619.64806,248.23143 619.10527,250.40888 618.61775,257.9338 C 618.04251,266.81281 618.07817,267.00534 620.75831,269.48921 C 622.25736,270.87848 624.68401,272.19902 626.15086,272.42374 C 633.16377,273.49811 641.54165,272.9978 647.53466,271.14675 z M 157.31787,231.85694 C 159.24287,231.02287 164.86787,229.11094 169.81787,227.6082 C 174.76787,226.10546 179.20056,224.52836 179.6683,224.10354 C 180.13604,223.67871 179.82009,218.67382 178.96618,212.98156 C 178.11228,207.2893 176.9001,198.35699 176.27245,193.13199 C 174.77885,180.69826 174.45439,179.13199 173.37222,179.13199 C 171.16296,179.13199 156.94364,189.61861 150.09184,196.30106 C 143.08823,203.13157 141.44838,205.41359 135.60909,216.45532 C 133.02533,221.34104 132.56225,229.25999 134.75394,231.07893 C 138.7037,234.35694 150.60119,234.76717 157.31787,231.85694 z M 203.81787,219.03936 C 208.76787,218.00476 213.72934,217.15235 214.84336,217.14513 C 217.69895,217.12661 242.80137,204.42125 255.31148,196.66256 C 265.67729,190.23375 268.33842,188.36189 286.63117,174.63199 C 303.25786,162.15258 323.26513,142.47371 321.77592,140.06412 C 321.51535,139.6425 319.84319,139.66073 318.06001,140.10463 C 316.27683,140.54853 310.54287,141.65535 305.31787,142.56423 C 300.09287,143.47311 294.01787,144.63477 291.81787,145.14569 C 289.61787,145.65661 284.21787,146.56071 279.81787,147.1548 C 272.12375,148.19365 265.49679,149.65122 254.81787,152.65342 C 252.06787,153.42654 246.21787,154.80097 241.81787,155.70772 C 234.55661,157.2041 229.98458,158.45966 213.45304,163.4972 C 210.50238,164.39634 206.81643,165.13199 205.26205,165.13199 C 203.70767,165.13199 202.19405,165.52332 201.89844,166.00162 C 201.60284,166.47992 197.07654,168.61742 191.84001,170.75162 C 181.03415,175.15566 181.64277,173.95724 183.29361,187.58009 C 183.83027,192.00864 184.788,200.13199 185.42191,205.63199 C 186.05582,211.13199 187.18941,217.14386 187.94099,218.9917 C 189.16073,221.99058 189.6034,222.27457 192.06268,221.63593 C 193.57804,221.24242 198.86787,220.07396 203.81787,219.03936 z M 219.51787,182.93199 C 217.05105,180.46517 218.86398,176.13199 222.36288,176.13199 C 224.9291,176.13199 227.5999,179.66802 226.84062,182.06033 C 226.09624,184.40566 221.53454,184.94866 219.51787,182.93199 z M 423.97025,194.96314 C 431.57819,191.24304 434.36461,189.09526 443.85696,179.63443 C 457.02593,166.50919 461.90315,160.6123 480.25066,135.63199 C 487.92597,125.18199 496.03099,114.18504 498.26182,111.19432 C 500.49265,108.2036 502.31787,105.11361 502.31787,104.32769 C 502.31787,102.727 502.10877,102.77324 491.81787,106.64931 C 487.96787,108.09941 483.91787,109.55049 482.81787,109.87392 C 481.71787,110.19734 479.46787,111.45058 477.81787,112.65888 C 476.16787,113.86718 473.45859,115.30854 471.79725,115.8619 C 469.21708,116.72132 457.77782,126.40723 453.76297,131.13199 C 439.11025,148.37559 435.38526,153.15691 424.74652,168.37684 C 421.95727,172.36717 417.41723,178.78199 414.65753,182.63199 C 409.68669,189.56673 406.6001,197.16159 407.8987,199.26277 C 409.00464,201.05223 414.55335,199.56778 423.97025,194.96314 z M 800.707,180.53807 C 803.25957,179.11141 805.7285,177.19891 806.19351,176.28807 C 807.12755,174.45851 806.50186,167.13199 805.41157,167.13199 C 805.03345,167.13199 801.59519,169.13828 797.77098,171.59041 C 786.44373,178.85359 786.87366,178.43345 788.21118,180.93264 C 789.83857,183.97344 794.84319,183.81541 800.707,180.53807 z M 844.0103,176.59606 C 848.66113,175.90781 851.30538,173.7195 849.57596,171.99008 C 848.22889,170.64301 845.21946,170.67886 838.31787,172.12418 C 831.88856,173.47059 828.91498,175.61777 831.31787,177.17877 C 832.74479,178.10575 834.28697,178.03494 844.0103,176.59606 z M 799.38787,160.46084 C 810.55679,151.20513 816.95857,143.43935 815.01875,141.49954 C 813.63765,140.11844 798.43247,155.55942 793.96283,162.88199 C 792.53711,165.21773 794.94382,164.14363 799.38787,160.46084 z M 163.92721,84.545477 C 169.38635,81.848067 172.94204,79.166137 177.15568,74.567687 C 186.16351,64.737227 197.91817,41.530347 195.70415,37.947997 C 195.43505,37.512577 192.38748,38.613357 188.93177,40.394157 C 180.90569,44.530177 172.31787,53.738417 172.31787,58.208317 C 172.31787,62.797497 170.99141,64.691447 159.69431,76.232547 C 153.98727,82.062857 149.31787,87.409237 149.31787,88.113387 C 149.31787,90.189587 155.61872,88.650787 163.92721,84.545477 z M 551.81787,69.557137 C 557.31501,67.954027 567.10212,60.772157 569.24428,56.769487 C 570.43016,54.553647 570.38412,53.882047 568.88998,51.601697 C 567.33783,49.232827 566.77085,49.047467 562.99526,49.674607 C 557.97156,50.509057 554.61871,52.141457 551.46873,55.286517 C 548.71446,58.036477 541.31787,69.565117 541.31787,71.108067 C 541.31787,72.262497 543.79658,71.896367 551.81787,69.557137 z M 343.03444,63.496127 C 345.96212,62.378037 347.31787,61.270257 347.31787,59.996127 C 347.31787,57.131847 343.1348,57.669867 340.00496,60.936707 C 335.64027,65.492467 336.31484,66.062367 343.03444,63.496127 z M 931.81787,198.98714 C 929.61787,197.88113 927.14287,196.62472 926.31787,196.19512 C 924.09434,195.03725 924.2249,185.77358 926.47084,185.34105 C 929.97007,184.66716 940.19584,196.40165 938.9465,199.65737 C 938.2089,201.57954 936.69056,201.43679 931.81787,198.98714 z " style="fill:#000000;fill-opacity:1" id="path2163"/>
</svg>